# xmcd
#
# Track frame offsets: 
#        150
#        8155
#        21441
#        33897
#        45068
#        57448
#        78227
#        92104
#        105302
#        118053
#        134432
#
# Disc length: 1919 seconds
#
# Revision: 0
# Processed by: cddbd v1.5.2PL0 Copyright (c) Steve Scherf et al.
# Submitted via: ExactAudioCopy v1.3
#
DISCID=7e077d0b
DTITLE=David Francey - The Broken Heart Of Everything
DYEAR=2018
DGENRE=Folk/Rock
TTITLE0=Poorer Then
TTITLE1=Night and Morning
TTITLE2=The Flower of Colonsay
TTITLE3=Lonely Road
TTITLE4=I Know It Won't
TTITLE5=Blue Sorrow and Then Some
TTITLE6=Come Sunday
TTITLE7=Where Harry Sat
TTITLE8=Only Love
TTITLE9=Walking in Jerusalem
TTITLE10=Moon Over Melbourne
EXTD=
EXTT0=
EXTT1=
EXTT2=
EXTT3=
EXTT4=
EXTT5=
EXTT6=
EXTT7=
EXTT8=
EXTT9=
EXTT10=
PLAYORDER=
